<!-- <?xml version="1.0" encoding="UTF-8"?>
<svg enable-background="new 0 0 496 496" fill='currentColor' version="1.1" viewBox="0 0 496 496" xml:space="preserve" xmlns="http://www.w3.org/2000/svg">
			<path d="m248 0c-136.97 0-248 111.03-248 248s111.03 248 248 248 248-111.03 248-248c-0.159-136.9-111.1-247.84-248-248zm0 480c-128.13 0-232-103.87-232-232s103.87-232 232-232 232 103.87 232 232c-0.141 128.07-103.93 231.86-232 232z"/>
			<path d="m361.14 134.86c-3.124-3.123-8.188-3.123-11.312 0l-101.82 101.82-101.82-101.82c-3.069-3.178-8.134-3.266-11.312-0.197s-3.266 8.134-0.197 11.312c0.064 0.067 0.13 0.132 0.197 0.197l101.82 101.82-101.82 101.82c-3.178 3.07-3.266 8.134-0.196 11.312s8.134 3.266 11.312 0.196c0.067-0.064 0.132-0.13 0.196-0.196l101.82-101.82 101.82 101.82c3.178 3.07 8.242 2.982 11.312-0.196 2.995-3.1 2.995-8.016 0-11.116l-101.82-101.82 101.82-101.82c3.123-3.124 3.123-8.188 0-11.312z"/>
</svg> -->
<svg xmlns="http://www.w3.org/2000/svg" viewBox="0 0 511.995 511.995"><path d="M437.126 74.939c-99.826-99.826-262.307-99.826-362.133 0C26.637 123.314 0 187.617 0 256.005s26.637 132.691 74.993 181.047c49.923 49.923 115.495 74.874 181.066 74.874s131.144-24.951 181.066-74.874c99.826-99.826 99.826-262.268.001-362.113zM409.08 409.006c-84.375 84.375-221.667 84.375-306.042 0-40.858-40.858-63.37-95.204-63.37-153.001s22.512-112.143 63.37-153.021c84.375-84.375 221.667-84.355 306.042 0 84.355 84.375 84.355 221.667 0 306.022z"/><path d="M341.525 310.827l-56.151-56.071 56.151-56.071c7.735-7.735 7.735-20.29.02-28.046-7.755-7.775-20.31-7.755-28.065-.02l-56.19 56.111-56.19-56.111c-7.755-7.735-20.31-7.755-28.065.02-7.735 7.755-7.735 20.31.02 28.046l56.151 56.071-56.151 56.071c-7.755 7.735-7.755 20.29-.02 28.046 3.868 3.887 8.965 5.811 14.043 5.811s10.155-1.944 14.023-5.792l56.19-56.111 56.19 56.111c3.868 3.868 8.945 5.792 14.023 5.792a19.828 19.828 0 0014.043-5.811c7.733-7.756 7.733-20.311-.022-28.046z"/></svg>
